<?xml version="1.0" encoding="UTF-8"?>
<svg width="72px" height="22px" viewBox="0 0 72 22" version="1.1" xmlns="http://www.w3.org/2000/svg" xmlns:xlink="http://www.w3.org/1999/xlink">
    <!-- Generator: Sketch 49 (51002) - http://www.bohemiancoding.com/sketch -->
    <title>white_logo_full</title>
    <desc>Created with Sketch.</desc>
    <defs></defs>
    <g id="Page-1" stroke="none" stroke-width="1" fill="none" fill-rule="evenodd">
        <g id="white_logo_full" fill="#333333">
            <path d="M14.8161333,21.1268 C13.8688,21.1268 13.02196,20.536 12.69488,19.6469333 L10.8294533,14.5762667 L8.61824,19.8113333 C8.28146667,20.6085333 7.50005333,21.1268 6.63452,21.1268 C5.77593333,21.1268 5.0078,20.5930667 4.70826667,19.7884 L0,7.14061333 C0.357016,7.02258667 0.728904,6.92916 1.115672,6.86030667 C1.50244,6.79145333 1.83465333,6.75702667 2.11233333,6.75702667 C2.7272,6.75702667 3.24784,6.88489333 3.67428,7.14061333 C4.10070667,7.39634667 4.42301333,7.82910667 4.6412,8.43892 L7.3188,16.4057333 L9.31213333,11.59612 L7.88408,7.0816 C8.26092,6.96357333 8.61298667,6.87997333 8.94024,6.8308 C9.26750667,6.78161333 9.58981333,6.75702667 9.90716,6.75702667 C10.42284,6.75702667 10.86416,6.88489333 11.2310933,7.14061333 C11.5980267,7.39634667 11.8707333,7.80942667 12.04924,8.37989333 L14.6078667,16.1106667 L16.5417333,9.44213333 C16.7797333,8.5766 17.0870667,7.91272 17.464,7.45044 C17.8408,6.98816 18.4061333,6.75702667 19.1597333,6.75702667 C19.5565333,6.75702667 19.9184,6.79145333 20.2457333,6.86030667 C20.5729333,6.92916 20.8953333,7.02258667 21.2126667,7.14061333 L16.9066667,19.636 C16.5992,20.5281333 15.7596,21.1268 14.8161333,21.1268 Z M32.5966667,12.68788 C32.5966667,12.2551067 32.5817333,11.8518533 32.552,11.4780933 C32.5222667,11.1043467 32.4429333,10.7846933 32.314,10.5191333 C32.1850667,10.2535733 31.9768,10.0470267 31.6892,9.89949333 C31.4016,9.75196 31,9.67818667 30.4842667,9.67818667 C29.7504,9.67818667 29.1206667,9.83064 28.5950667,10.1355467 C28.0694667,10.4404533 27.8066667,10.81912 27.8066667,11.27156 L27.8066667,19.1037333 C27.8066667,20.2210667 26.9009333,21.1268 25.7836,21.1269333 C24.6662667,21.1269333 23.7605333,20.2212 23.7605333,19.104 C23.7605333,19.104 23.7605333,19.1038667 23.7605333,19.1038667 L23.7605333,0.147532 C23.7605333,0.127860933 23.9093333,0.103273067 24.2068,0.0737661333 C24.5042667,0.0442593333 24.8117333,0.0295054667 25.1290667,0.0295054667 C25.4464,0.0295054667 25.7637333,0.0590129333 26.0810667,0.1180268 C26.3984,0.17704 26.686,0.290146667 26.9438667,0.457352 C27.2017333,0.624557333 27.41,0.860608 27.5686667,1.165512 C27.7273333,1.47041333 27.8066667,1.86876 27.8066667,2.36053333 L27.8066667,8.11433333 C27.9653333,7.93729333 28.1637333,7.75042667 28.4017333,7.55370667 C28.6397333,7.357 28.9273333,7.17504 29.2645333,7.00784 C29.6017333,6.84062667 29.9933333,6.70785333 30.4397333,6.60949333 C30.886,6.51114667 31.3966667,6.46196 31.9718667,6.46196 C33.3801333,6.46196 34.4213333,6.73736 35.0957333,7.28814667 C35.7701333,7.83894667 36.2064,8.56677333 36.4048,9.47164 C36.504,9.92408 36.5684,10.4158533 36.5981333,10.9469867 C36.6278667,11.4781067 36.6428,11.9993867 36.6428,12.51084 L36.6428,19.1038667 C36.6428,20.2212 35.7370667,21.1269333 34.6198667,21.1269333 C34.6197333,21.1269333 34.6197333,21.1269333 34.6197333,21.1269333 C33.5024,21.1268 32.5966667,20.2210667 32.5966667,19.1037333 L32.5966667,12.68788 Z M44.7096,21.0088 C44.6302667,21.0481333 44.4517333,21.0776 44.1741333,21.0973333 C43.8964,21.1169333 43.5989333,21.1268 43.2816,21.1268 C42.8849333,21.1268 42.5278667,21.0924 42.2105333,21.0234667 C41.8932,20.9546667 41.6204,20.8268 41.3924,20.6398667 C41.1642667,20.4530667 40.9857333,20.2022667 40.8568,19.8874667 C40.7278667,19.5728 40.6634667,19.1694667 40.6634667,18.6777333 L40.6634667,6.87505333 C40.6634667,6.85538667 40.8122667,6.8308 41.1097333,6.80129333 C41.4072,6.77178667 41.7146667,6.75702667 42.032,6.75702667 C42.3493333,6.75702667 42.6666667,6.78653333 42.984,6.84554667 C43.3014667,6.90456 43.5889333,7.01766667 43.8468,7.18488 C44.1046667,7.35208 44.3129333,7.58813333 44.4716,7.89304 C44.6302667,8.19794667 44.7096,8.59628 44.7096,9.08805333 L44.7096,21.0088 Z M44.7393333,2.15398667 C44.7393333,2.78346667 44.5261333,3.29490667 44.0997333,3.68833333 C43.6733333,4.08176 43.1625333,4.27846667 42.5676,4.27846667 C41.9526667,4.27846667 41.4369333,4.08176 41.0205333,3.68833333 C40.604,3.29490667 40.3957333,2.78346667 40.3957333,2.15398667 C40.3957333,1.52450667 40.604,1.00814933 41.0205333,0.604889333 C41.4369333,0.201629333 41.9526667,0 42.5676,0 C43.1625333,0 43.6733333,0.201629333 44.0997333,0.604889333 C44.5261333,1.00814933 44.7393333,1.52450667 44.7393333,2.15398667 Z M48.9385333,18.7072 C48.7997333,18.3138667 48.7104,17.9006667 48.6708,17.468 C48.6310667,17.0352 48.6113333,16.6024 48.6113333,16.1696 L48.6113333,2.47856 C48.7501333,2.45889333 48.8989333,2.43922667 49.0576,2.41954667 C49.1964,2.39988 49.3452,2.38512 49.5038667,2.37529333 C49.6625333,2.36545333 49.8212,2.36053333 49.9798667,2.36053333 C50.2972,2.36053333 50.6145333,2.39004 50.9318667,2.44905333 C51.2492,2.50806667 51.5368,2.62609333 51.7946667,2.80313333 C52.0525333,2.98017333 52.2608,3.22114667 52.4194667,3.52605333 C52.5781333,3.83094667 52.6574667,4.22929333 52.6574667,4.72106667 L52.6574667,7.00784 L54.746,7.00784 C56.1310667,7.00784 57.254,8.13073333 57.254,9.51590667 L57.254,10.3568533 L52.6574667,10.3568533 L52.6574667,16.1106667 C52.6574667,17.4876 53.2226667,18.1761333 54.3533333,18.1761333 C54.6309333,18.1761333 54.8937333,18.1318667 55.1417333,18.0433333 C55.3896,17.9548 55.6128,17.8564 55.8110667,17.7482667 C56.0094667,17.6401333 56.1829333,17.5269333 56.3317333,17.4089333 C56.4805333,17.2909333 56.5846667,17.2024 56.6441333,17.1433333 C56.9416,17.5761333 57.1697333,17.9498667 57.3284,18.2646667 C57.4870667,18.5793333 57.5664,18.8744 57.5664,19.1498667 C57.5664,19.4056 57.4622667,19.6564 57.254,19.9022667 C57.0457333,20.1481333 56.7532,20.3744 56.3764,20.5809333 C55.9994667,20.7874667 55.5433333,20.9546667 55.0078667,21.0825333 C54.4722667,21.2104 53.8872,21.2742667 53.2525333,21.2742667 C52.0228,21.2742667 51.0657333,21.0382667 50.3814667,20.5661333 C49.6972,20.094 49.2162667,19.4744 48.9385333,18.7072 Z M67.0017333,18.3236 C67.4976,18.3236 67.934,18.2696 68.3108,18.1613333 C68.6877333,18.0532 69.0249333,17.9204 69.3224,17.7630667 C69.6198667,17.6056 69.8777333,17.4336 70.0958667,17.2466667 C70.3141333,17.0597333 70.5124,16.8876 70.6909333,16.7302667 C70.9289333,17.0253333 71.1769333,17.404 71.4346667,17.8662667 C71.6925333,18.3285333 71.8214667,18.7072 71.8214667,19.0022667 C71.8214667,19.4350667 71.5736,19.8285333 71.0777333,20.1825333 C70.6612,20.4973333 70.0712,20.7677333 69.3074667,20.994 C68.5438667,21.2202667 67.6464,21.3333333 66.6150667,21.3333333 C65.6828,21.3333333 64.7654667,21.2153333 63.8630667,20.9792 C62.9605333,20.7432 62.1573333,20.3301333 61.4532,19.74 C60.7490667,19.1498667 60.1788,18.3581333 59.7425333,17.3646667 C59.3061333,16.3713333 59.088,15.1172 59.088,13.6025333 C59.088,12.3632933 59.2813333,11.2961467 59.6681333,10.4011067 C60.0549333,9.50606667 60.5705333,8.76349333 61.2152,8.17334667 C61.8597333,7.58321333 62.5886667,7.15045333 63.4018667,6.87505333 C64.2150667,6.59965333 65.0481333,6.46196 65.9010667,6.46196 C67.0117333,6.46196 67.9538667,6.63408 68.7273333,6.97833333 C69.5009333,7.32257333 70.1306667,7.78484 70.6165333,8.36514667 C71.1025333,8.94544 71.4545333,9.60934667 71.6726667,10.3568533 C71.8909333,11.10436 72,11.8911867 72,12.7173867 L72,13.1304667 C72,13.28784 71.9950667,13.4550667 71.9850667,13.6321333 C71.9752,13.8090667 71.9653333,13.9812 71.9553333,14.1484 C71.9454667,14.3156 71.9305333,14.4484 71.9108,14.5468 L63.1638667,14.5468 C63.2432,15.6286667 63.5804,16.5286667 64.1754667,17.2466667 C64.7704,17.9646667 65.7125333,18.3236 67.0017333,18.3236 Z M68.3405333,12.3338 C68.3405333,11.3895733 68.1572,10.6224133 67.7902667,10.0322667 C67.4233333,9.44213333 66.7637333,9.14708 65.8117333,9.14708 C64.9985333,9.14708 64.3489333,9.42738667 63.8630667,9.98801333 C63.3770667,10.54864 63.1341333,11.33056 63.1341333,12.3338 L68.3405333,12.3338 Z" id="Shape"></path>
        </g>
    </g>
</svg>